<svg xmlns="http://www.w3.org/2000/svg" width="19" height="27"><path fill="#01835F" d="M18.814 21.546l-1.277-2.37v-5.854c0-3.618-2.456-6.68-5.807-7.638V2.763c0-1.217-1-2.206-2.23-2.206s-2.23.99-2.23 2.206v2.921c-3.35.959-5.807 4.02-5.807 7.639v5.853l-1.277 2.37c-.246.456-.232.994.037 1.437.27.443.742.708 1.265.708h5.069c.086 1.532 1.373 2.752 2.943 2.752s2.857-1.22 2.943-2.752h5.07c.522 0 .995-.265 1.264-.708.269-.443.283-.98.037-1.437zM8.45 2.763c0-.573.47-1.04 1.05-1.04.579 0 1.05.467 1.05 1.04V5.44a8.161 8.161 0 0 0-2.1 0V2.763zm-5.807 10.56c0-3.74 3.076-6.783 6.857-6.783s6.857 3.043 6.857 6.782v5.37H2.643v-5.37zM9.5 25.275c-.92 0-1.676-.697-1.76-1.585h3.52a1.763 1.763 0 0 1-1.76 1.585zm8.265-2.894a.29.29 0 0 1-.253.142H1.488a.29.29 0 0 1-.253-.142.285.285 0 0 1-.008-.287l1.204-2.235H16.57l1.204 2.235a.285.285 0 0 1-.008.287z"/></svg>