<svg xmlns="http://www.w3.org/2000/svg" width="24" height="28"><path fill="none" stroke="#01835F" stroke-width="1.2" d="M23 26.5H1v-1.119c0-1.285.801-2.467 2.09-3.082l4.099-2.433c.853-.407 1.382-1.189 1.382-2.038v-2.01l-.11-.116a4.569 4.569 0 0 1-.233-.265 9.458 9.458 0 0 1-.497-.662c-.143-.21-.28-.424-.417-.662a9.613 9.613 0 0 1-.34-.655l-.035-.075a7.573 7.573 0 0 1-.258-.631l-.031-.09a7.163 7.163 0 0 1-.16-.516l-.052-.198-.195-.11c-.331-.186-.529-.5-.529-.838V9c0-.28.136-.542.383-.737l.189-.149V4.823a3.09 3.09 0 0 1 .912-2.399C8.145 1.48 9.76 1 12 1c2.231 0 3.844.475 4.792 1.414 1.113 1.1.929 2.508.927 2.52l-.005 3.18.189.149c.247.195.383.456.383.737v2c0 .436-.327.818-.813.95l-.284.076-.092.247a10.012 10.012 0 0 1-1.62 2.857 6.72 6.72 0 0 1-.478.54l-.142.141v2.063c0 .885.562 1.68 1.466 2.076l4.46 2.388C22.15 22.937 23 24.14 23 25.478V26.5z"/></svg>