<svg xmlns="http://www.w3.org/2000/svg" width="81" height="80"><g fill="#0C9"><path d="M78.666 51.416h-.784v-3.44c3.1-3.136 2.747-8.733 2.689-9.443v-5.86a3.426 3.426 0 0 0-3.422-3.421h-.131a3.4 3.4 0 0 0-1.648.423 3.418 3.418 0 0 0-2.677-1.294h-.132c-.577 0-1.127.142-1.61.398a3.416 3.416 0 0 0-2.617-1.22h-.131c-.479 0-.939.099-1.358.28a3.422 3.422 0 0 0-2.858-1.542h-.131a3.426 3.426 0 0 0-3.422 3.422v3.298c-1.374-.148-2.448.115-3.26.794-1.761 1.474-1.584 4.4-1.412 7.228.234 3.86 3.675 7.1 5.002 8.211v2.166h-.66a1.26 1.26 0 0 0-1.26 1.26v25.903c0 .695.563 1.26 1.26 1.26h18.562a1.26 1.26 0 0 0 1.26-1.26V52.676a1.26 1.26 0 0 0-1.26-1.26zm-20.39-10.53c-.121-1.998-.272-4.484.515-5.143.292-.244.864-.307 1.643-.185v1.71a1.26 1.26 0 1 0 2.519 0V29.72c0-.498.405-.903.903-.903h.131c.498 0 .903.405.903.903v4.862a1.26 1.26 0 1 0 2.519 0v-4.028a.9.9 0 0 1 .793-.476h.132c.498 0 .903.406.903.903v3.601a1.26 1.26 0 1 0 2.519 0v-3.188a.898.898 0 0 1 .805-.493h.131c.498 0 .903.405.903.903V35.2a1.26 1.26 0 1 0 2.519 0v-2.525c0-.498.405-.903.903-.903h.132c.497 0 .902.405.902.903v5.915c0 .04.002.08.006.12.145 1.506.024 5.834-2.248 7.758-.283.24-.446.59-.446.961v3.989h-12.08v-2.771c0-.399-.19-.774-.508-1.011-.043-.033-4.286-3.238-4.5-6.75zm19.13 36.434H61.362V60.414h16.044V77.32zm0-19.425H61.362v-3.96h16.044v3.96z"/><path d="M54.282 21.112l5.762 2.434a3.313 3.313 0 0 0 4.348-1.766l.7-1.66a3.296 3.296 0 0 0 .018-2.54 3.297 3.297 0 0 0-1.785-1.808l-6.84-2.875.317-1.143c.004-.015.008-.03.01-.045a3.398 3.398 0 0 0-.415-2.585 3.398 3.398 0 0 0-2.121-1.534l-.13-.031a3.397 3.397 0 0 0-1.7.031 3.418 3.418 0 0 0-2.306-1.878l-.128-.03a3.427 3.427 0 0 0-1.656.015 3.4 3.4 0 0 0-2.265-1.791l-.13-.03a3.404 3.404 0 0 0-1.383-.043 3.462 3.462 0 0 0-.304-.625 3.4 3.4 0 0 0-2.124-1.534l-.126-.03a3.399 3.399 0 0 0-2.586.416 3.398 3.398 0 0 0-1.529 2.102l-.224.833-8.869-3.727-.013-.005a1.463 1.463 0 0 0-.072-.026l-.049-.015-.062-.016-.063-.014-.051-.008a1.093 1.093 0 0 0-.077-.009l-.02-.002L19.976.63a1.26 1.26 0 1 0-.961 2.158l5.928 5.79.006.005.003.003.01.01c.025.023.051.046.078.068l.04.03.042.032.012.007c.021.014.043.027.066.04.16.103.328.195.503.27l5.394 2.277c-.398 1.168-.64 2.555-.858 3.805-.688 3.948 2.129 8.043 3.076 9.285l.004 5.727h-1.048a1.26 1.26 0 0 0-1.26 1.26v47.182c0 .696.564 1.26 1.26 1.26h18.563a1.26 1.26 0 0 0 1.26-1.26V47.063a1.26 1.26 0 1 0-2.52 0V77.32H33.53V39.135h16.044v3.499a1.26 1.26 0 1 0 2.52 0V31.395a1.26 1.26 0 0 0-1.26-1.26h-.528l.011-3.253c2.127-1.409 3.321-3.856 3.965-5.77zm6.684-3.599l1.381.58c.197.083.35.238.43.436a.793.793 0 0 1-.005.611l-.7 1.66a.793.793 0 0 1-.436.43.793.793 0 0 1-.612-.005l-1.473-.622 1.415-3.09zm-6.014.93l.857-3.097 2.833 1.19-1.412 3.087-2.312-.976.034-.205zM25.45 5.552l-2.243-2.191 3.185.205-.942 1.985zm2.066 1.52l1.433-3.016 8.074 3.393-.88 3.267-8.627-3.644zm22.057 29.543H33.53v-3.96h16.044v3.96zM48.49 25.037a1.26 1.26 0 0 0-.69 1.12l-.013 3.85h-11.95l-.004-6.035c0-.295-.105-.582-.295-.809-.034-.041-3.422-4.14-2.818-7.606.19-1.092.402-2.301.704-3.254l2.278.962a1.257 1.257 0 0 0 2.396-.111l2.248-8.352a.898.898 0 0 1 .414-.597.898.898 0 0 1 .683-.11l.127.03a.9.9 0 0 1 .56.406.897.897 0 0 1 .11.682l-.129.539-1.483 5.14a1.26 1.26 0 1 0 2.42.7l1.433-4.968a.898.898 0 0 1 .897-.297l.129.03a.897.897 0 0 1 .671 1.076l-1.32 4.456a1.26 1.26 0 1 0 2.416.715l1.222-4.126a.896.896 0 0 1 .934-.344l.127.03a.904.904 0 0 1 .67 1.087l-.19.804-1.075 3.423a1.26 1.26 0 0 0 2.404.754l1.087-3.465.012-.046.012-.04a.903.903 0 0 1 1.086-.67l.129.03a.906.906 0 0 1 .674 1.07l-1.863 6.735a1.252 1.252 0 0 0-.033.162c-.008.053-.798 5.416-3.98 7.03z"/><path d="M25.69 45.48v-5.86a3.426 3.426 0 0 0-3.422-3.422h-.131a3.4 3.4 0 0 0-1.647.423 3.418 3.418 0 0 0-2.678-1.294h-.132c-.577 0-1.126.142-1.61.398a3.416 3.416 0 0 0-2.617-1.22h-.131c-.479 0-.938.099-1.358.28a3.422 3.422 0 0 0-2.857-1.541h-.132a3.426 3.426 0 0 0-3.422 3.422v3.297c-1.374-.148-2.447.115-3.26.795C.533 42.23.71 45.156.881 47.985c.234 3.861 3.676 7.1 5.002 8.212v2.166h-.66a1.26 1.26 0 0 0-1.26 1.259v18.957c0 .696.563 1.26 1.26 1.26h18.563a1.26 1.26 0 0 0 1.259-1.26V59.622a1.26 1.26 0 0 0-1.26-1.26h-.783v-3.44c3.1-3.136 2.747-8.733 2.688-9.443zm-3.164 31.84H6.48v-9.96h16.045v9.96zm0-12.479H6.48v-3.96h16.045v3.96zm-1.597-11.428c-.283.24-.446.59-.446.961v3.989H8.4v-2.771a1.26 1.26 0 0 0-.509-1.012c-1.19-.883-4.32-3.818-4.497-6.747-.121-1.998-.272-4.485.515-5.144.292-.244.865-.307 1.643-.185v1.71a1.26 1.26 0 1 0 2.519 0v-7.549c0-.498.405-.903.903-.903h.132c.497 0 .903.405.903.903v4.862a1.26 1.26 0 1 0 2.518 0V37.5a.9.9 0 0 1 .794-.475h.131c.498 0 .903.405.903.903v3.601a1.26 1.26 0 1 0 2.519 0V38.34a.898.898 0 0 1 .805-.494h.132c.497 0 .902.405.902.903v3.397a1.26 1.26 0 1 0 2.52 0V39.62c0-.498.404-.903.902-.903h.132c.498 0 .903.405.903.903v5.915c0 .04.002.08.006.12.145 1.506.024 5.834-2.248 7.758z"/></g></svg>