<svg xmlns="http://www.w3.org/2000/svg" width="80" height="80"><g fill="#0C9"><path d="M21.744 9.165h13.828a1.254 1.254 0 1 0 0-2.507H21.744a1.254 1.254 0 1 0 0 2.507zm0 5.534H49.4a1.254 1.254 0 1 0 0-2.508H21.744a1.254 1.254 0 1 0 0 2.508zm0 17.238h13.828a1.254 1.254 0 1 0 0-2.507H21.744a1.254 1.254 0 1 0 0 2.507zm0 5.533h27.35a1.254 1.254 0 1 0 0-2.507h-27.35a1.254 1.254 0 1 0 0 2.508zm0 17.24h13.828a1.254 1.254 0 1 0 0-2.508H21.744a1.254 1.254 0 1 0 0 2.507zm27.154 3.025H21.744a1.254 1.254 0 1 0 0 2.508H48.9a1.254 1.254 0 1 0 0-2.508z"/><path d="M74.057 63.256l-7.284-2.921v-1.6a8.605 8.605 0 0 0 4.163-5.201 4.439 4.439 0 0 0 4.41-4.433 4.43 4.43 0 0 0-1.812-3.574v-3.33c0-6.196-5.041-11.237-11.238-11.237h-.832c-.93 0-1.831.115-2.695.329v-6.792c0-.692-.561-1.253-1.254-1.253H53.79a1.254 1.254 0 1 0 0 2.507h2.47v6.49c-3.29 1.727-5.624 5.035-5.984 8.909H3.1v-15.4h46.494a1.254 1.254 0 1 0 0-2.507H1.846c-.692 0-1.254.56-1.254 1.253v17.906c0 .693.562 1.254 1.254 1.254h48.38v1.857c-.207.15-.4.318-.578.502H1.846c-.692 0-1.254.56-1.254 1.254v17.906c0 .692.562 1.253 1.254 1.253h43.61c-1.059 1.457-1.851 3.42-1.851 5.96v6.234c0 .692.56 1.255 1.253 1.255h4.737a1.254 1.254 0 1 0 0-2.507h-3.483v-4.982c0-5.214 4.103-6.71 4.27-6.77l.059-.02 6.863-2.688c.031.039.064.076.1.112l3.601 3.506c.234.229.548.356.875.356h.02a1.25 1.25 0 0 0 .882-.384l3.522-3.653 6.85 2.747.06.023c.175.06 4.278 1.557 4.278 6.771v4.982H53.606a1.254 1.254 0 1 0 0 2.508h25.14c.693 0 1.254-.574 1.254-1.266v-6.224c0-5.612-3.866-8.418-5.943-9.133zM71.26 47.207a1.93 1.93 0 0 1 1.578 1.894c0 .943-.682 1.728-1.578 1.893v-3.787zm-18.528-5.009c0-4.814 3.917-8.73 8.731-8.73h.832c4.814 0 8.73 3.916 8.73 8.73v2.048l-.004-.007a1.144 1.144 0 0 0-.117-.14l-.037-.035a1.377 1.377 0 0 0-.052-.048l-.038-.03a1.2 1.2 0 0 0-.058-.043l-.043-.028a1.164 1.164 0 0 0-.059-.036c-.017-.01-.035-.018-.053-.027-.018-.01-.036-.018-.054-.026-.022-.01-.044-.018-.067-.027l-.047-.017a.969.969 0 0 0-.077-.021l-.035-.01c-2.728-.621-3.582-4.148-3.59-4.18a1.254 1.254 0 0 0-2.239-.458c-3.299 4.56-10.56 4.606-10.66 4.606h-.005c-.043 0-.086.003-.128.007l-.039.006c-.028.004-.057.007-.085.013l-.053.013c-.022.006-.045.01-.067.018l-.06.021-.055.02c-.023.01-.045.022-.066.032-.015.007-.03.013-.043.021-.023.012-.044.026-.066.04-.012.007-.025.014-.037.023-.02.013-.04.028-.06.043l-.037.029c-.018.014-.034.03-.05.045l-.04.035-.043.048-.037.04-.037.05-.036.047-.019.032v-2.104zm-.195 5v3.805a1.928 1.928 0 0 1-1.635-1.902c0-.963.71-1.76 1.635-1.903zm4.488 13.13l-7.473 2.926a7.303 7.303 0 0 0-1.419.687 1.26 1.26 0 0 0-.21-.019H3.1V48.524h45.334a4.44 4.44 0 0 0 4.396 5.011l.032-.002a8.605 8.605 0 0 0 4.164 5.202v1.592zm7.239.875v.146l-2.414 2.505-2.318-2.258v-1.973c.51.096 1.035.148 1.573.148h1.587c.537 0 1.062-.052 1.572-.147v1.579zm-1.572-3.94h-1.587a6.068 6.068 0 0 1-6.06-6.06v-5.04c2.188-.188 6.744-.94 9.992-3.947.664 1.312 1.82 2.893 3.715 3.67v5.317a6.067 6.067 0 0 1-6.06 6.06zM13.401 7.777a1.254 1.254 0 1 0 0-2.508H7.077c-.692 0-1.253.562-1.253 1.254v8.31c0 .693.561 1.254 1.253 1.254h8.718c.693 0 1.254-.561 1.254-1.254v-2.242a1.254 1.254 0 1 0-2.508 0v.988h-6.21V7.777h5.07z"/><path d="M18.246 5.61a1.254 1.254 0 0 0-1.773.053l-4.164 4.42L11.02 8.68a1.254 1.254 0 1 0-1.847 1.696l2.199 2.395c.236.257.567.404.915.406h.009c.345 0 .675-.142.912-.394l5.09-5.4a1.254 1.254 0 0 0-.053-1.772zm-4.845 24.94a1.254 1.254 0 1 0 0-2.508H7.077c-.692 0-1.253.56-1.253 1.253v8.31c0 .693.561 1.254 1.253 1.254h8.718c.693 0 1.254-.561 1.254-1.254v-2.242a1.254 1.254 0 1 0-2.508 0v.988h-6.21V30.55h5.07z"/><path d="M18.246 28.383a1.254 1.254 0 0 0-1.773.053l-4.164 4.418-1.288-1.402a1.254 1.254 0 1 0-1.847 1.696l2.2 2.395c.235.257.566.404.915.406h.008c.345 0 .675-.142.912-.394l5.09-5.4a1.254 1.254 0 0 0-.053-1.772zm-2.451 28.499c-.692 0-1.254.561-1.254 1.254v.988h-6.21V53.32h5.07a1.254 1.254 0 0 0 0-2.507H7.078c-.692 0-1.253.561-1.253 1.254v8.31c0 .692.561 1.253 1.253 1.253h8.718c.693 0 1.254-.56 1.254-1.253v-2.242c0-.693-.561-1.254-1.254-1.254z"/><path d="M16.473 51.208l-4.164 4.419-1.288-1.403a1.254 1.254 0 1 0-1.847 1.696l2.2 2.396c.235.256.566.403.915.406h.008c.345 0 .675-.143.912-.394l5.09-5.4a1.254 1.254 0 0 0-1.826-1.72zM1.846 20.885h55.67c.692 0 1.253-.56 1.253-1.253V1.725c0-.693-.561-1.254-1.254-1.254h-3.724a1.254 1.254 0 1 0 0 2.508h2.47v15.398H3.1V2.98h46.494a1.254 1.254 0 1 0 0-2.508H1.847c-.692 0-1.254.562-1.254 1.254v17.906c0 .693.562 1.254 1.254 1.254z"/></g></svg>