<svg xmlns="http://www.w3.org/2000/svg" width="80" height="80"><g fill="#0C9"><path d="M7.914 33.712a1.26 1.26 0 0 0-1.26 1.26v.868a1.26 1.26 0 1 0 2.52 0v-.868a1.26 1.26 0 0 0-1.26-1.26zm0-4.295a1.26 1.26 0 0 0-1.26 1.261v.868a1.26 1.26 0 1 0 2.52 0v-.868a1.26 1.26 0 0 0-1.26-1.26zm65.252 15.155a1.26 1.26 0 1 0-2.521 0v.868a1.26 1.26 0 1 0 2.521 0v-.868zm-2.521 4.295v.867a1.26 1.26 0 1 0 2.52 0v-.867a1.26 1.26 0 1 0-2.52 0z"/><path d="M77.271 62.34c.127-.36.196-.749.196-1.153v-.09c0-.613-.16-1.19-.44-1.691l.002-.027v-11.52a1.26 1.26 0 1 0-2.521 0v9.792a3.49 3.49 0 0 0-.532-.045h-7.841c.834-.82 1.557-1.816 1.798-2.932.252-1.167-.044-2.314-.856-3.318a.83.83 0 0 0-.021-.025c-.094-.11-2.362-2.667-6.983.705a8.85 8.85 0 0 1-1.387.841V41.67h15.822v1.905a1.26 1.26 0 1 0 2.52 0V34.87a1.26 1.26 0 0 0-1.26-1.26h-.785V29.7c1.36-1.183 2.252-3.406 2.717-6.757.353-2.54.32-4.819.316-5.044V11.49A3.495 3.495 0 0 0 74.525 8h-.09c-.337 0-.662.047-.97.136V6.14a3.495 3.495 0 0 0-3.491-3.491h-.09c-.4 0-.781.07-1.138.194A3.495 3.495 0 0 0 65.442.47h-.09c-1.534 0-2.84.995-3.308 2.374a3.472 3.472 0 0 0-1.153-.196h-.09c-.617 0-1.195.162-1.699.443a1.282 1.282 0 0 0-.112-.005H34.572a1.26 1.26 0 0 0-1.26 1.26v.785h-3.91c-1.183-1.36-3.406-2.251-6.757-2.716a35.472 35.472 0 0 0-5.044-.316h-6.407a3.495 3.495 0 0 0-3.491 3.49v.091c0 .337.048.662.137.97H5.843a3.495 3.495 0 0 0-3.49 3.491v.09c0 .4.07.78.193 1.138a3.494 3.494 0 0 0-2.371 3.303v.09c0 1.535.995 2.841 2.373 3.308-.127.362-.196.75-.196 1.154v.09c0 .612.16 1.188.438 1.69v24.539c0 .696.565 1.26 1.261 1.26h.785v3.91c-1.36 1.183-2.251 3.405-2.717 6.756-.352 2.54-.32 4.82-.316 5.045v6.407a3.495 3.495 0 0 0 3.492 3.491h.09c.336 0 .662-.048.97-.137v1.996a3.495 3.495 0 0 0 3.49 3.491h.09c.4 0 .781-.07 1.139-.194a3.495 3.495 0 0 0 3.303 2.372h.09a3.497 3.497 0 0 0 3.308-2.373c.361.127.75.195 1.153.195h.09a3.47 3.47 0 0 0 1.69-.438h4.558a1.26 1.26 0 1 0 0-2.52h-2.801c.027-.175.045-.351.045-.532v-7.841c.82.833 1.816 1.557 2.932 1.798.27.058.54.087.805.087.885 0 1.741-.32 2.513-.943a.578.578 0 0 0 .026-.022c.11-.094 2.665-2.362-.706-6.982a8.838 8.838 0 0 1-.841-1.387h11.208v15.821h-9.26a1.26 1.26 0 1 0 0 2.521h16.06a1.26 1.26 0 0 0 1.26-1.26v-.785h3.91c1.184 1.36 3.406 2.25 6.757 2.716a35.942 35.942 0 0 0 5.044.316h6.408a3.495 3.495 0 0 0 3.49-3.491v-.09c0-.337-.047-.662-.136-.97h1.996a3.495 3.495 0 0 0 3.491-3.491v-.09c0-.399-.07-.78-.194-1.138a3.494 3.494 0 0 0 2.372-3.303v-.09a3.497 3.497 0 0 0-2.374-3.308zm-2.763-23.192H58.686v-3.019h15.822v3.019zM59.136 19.036a1.26 1.26 0 0 0 .692-1.22l.003-.07V6.14a.97.97 0 0 1 .97-.97h.09a.97.97 0 0 1 .97.97l.002.046-.002.047v10.689a1.26 1.26 0 1 0 2.521 0V6.232l-.002-.046.002-.046V3.962a.97.97 0 0 1 .97-.97h.09a.97.97 0 0 1 .97.97v1.81c-.013.121-.02.243-.02.368v2.765c0 .073.008.145.02.215v7.801a1.26 1.26 0 1 0 2.52 0V8.278a1.26 1.26 0 0 0-.019-.215v-.03c.012-.07.02-.142.02-.216V5.945a.972.972 0 0 1 .95-.775h.09a.97.97 0 0 1 .97.97v10.782a1.26 1.26 0 1 0 2.52 0V11.49c0-.535.436-.97.97-.97h.091c.535 0 .97.436.97.97v6.447c.077 3.53-.621 8.98-2.414 10.04a1.26 1.26 0 0 0-.618 1.085v4.546H60.45V30.58a1.26 1.26 0 0 0-.5-1.005c-3.53-2.675-3.798-4.14-4.136-5.993-.254-1.393-.542-2.972-2.04-5.025-1.499-2.054-1.368-3.236-1.076-3.601.5-.383.873-.368 1.144-.31 1.36.293 2.93 2.504 3.6 3.83a1.262 1.262 0 0 0 1.693.56zM41.372 5.608h15.983a3.45 3.45 0 0 0-.045.532v7.84c-.82-.833-1.816-1.556-2.933-1.797-1.165-.252-2.313.044-3.317.856a.681.681 0 0 0-.026.021c-.11.094-2.666 2.362.706 6.983.363.499.634.956.84 1.387H41.373V5.608zm-5.54 0h3.02v15.821h-3.02V5.608zM3.667 15.734a.97.97 0 0 1-.97-.97v-.09a.97.97 0 0 1 .97-.97h1.81c.12.012.243.02.367.02h2.765c.074 0 .146-.009.217-.02h7.8a1.26 1.26 0 1 0 0-2.522H7.982c-.074 0-.146.008-.216.02h-.03a1.275 1.275 0 0 0-.216-.02H5.648a.971.971 0 0 1-.775-.95v-.09a.97.97 0 0 1 .97-.97h10.783a1.26 1.26 0 1 0 0-2.52h-5.432a.971.971 0 0 1-.97-.97v-.09a.97.97 0 0 1 .97-.97h6.42l.027-.001c3.53-.077 8.98.622 10.04 2.414.227.383.64.619 1.085.619h4.546v12.01h-3.029a1.26 1.26 0 0 0-1.004.5c-2.676 3.531-4.14 3.798-5.993 4.136-1.393.254-2.973.542-5.026 2.04-2.053 1.499-3.236 1.368-3.6 1.076-.383-.5-.368-.872-.31-1.143.292-1.36 2.505-2.931 3.83-3.601a1.26 1.26 0 0 0-.66-2.383c-.024-.001-.047-.004-.071-.004H5.843a.971.971 0 0 1-.97-.97v-.09c0-.534.435-.97.97-.97l.047-.002c.015 0 .03.003.046.003h10.69a1.26 1.26 0 1 0 0-2.521H5.935l-.046.002-.047-.002H3.666v-.001zm17.467 23.01H5.312V22.76c.173.027.35.045.531.045h7.841c-.833.82-1.557 1.816-1.798 2.933-.252 1.166.044 2.313.856 3.317a.686.686 0 0 0 .022.026c.057.067.912 1.032 2.604 1.032 1.102 0 2.557-.409 4.378-1.738a8.845 8.845 0 0 1 1.387-.84v11.208zm0 2.52v3.019H5.312v-3.018h15.821zm5.987 24.193c-.501.383-.873.367-1.144.309-1.36-.292-2.93-2.505-3.601-3.83a1.261 1.261 0 0 0-2.383.66l-.003.07v11.607a.97.97 0 0 1-.97.97h-.09a.97.97 0 0 1-.97-.97c0-.016-.002-.031-.003-.047 0-.015.003-.03.003-.046V63.49a1.26 1.26 0 1 0-2.521 0v10.69l.002.046-.002.047v2.177a.97.97 0 0 1-.97.97h-.09a.97.97 0 0 1-.97-.97v-1.81c.012-.12.02-.243.02-.367v-2.765a1.26 1.26 0 0 0-.02-.216v-7.801a1.26 1.26 0 1 0-2.522 0v8.643c0 .074.008.146.02.216v.03c-.012.07-.02.142-.02.216v1.872a.971.971 0 0 1-.95.775h-.09a.97.97 0 0 1-.97-.97V63.49a1.26 1.26 0 1 0-2.52 0v5.431c0 .535-.436.97-.97.97h-.09a.971.971 0 0 1-.97-.97v-6.42l-.001-.026c-.074-3.532.626-8.982 2.414-10.04a1.26 1.26 0 0 0 .619-1.086v-4.546h12.01v3.029c0 .394.185.766.5 1.005 3.531 2.675 3.798 4.139 4.136 5.992.067.367.137.748.23 1.146v.004c.261 1.112.708 2.366 1.81 3.876 1.498 2.054 1.367 3.236 1.076 3.6zm16.867 9.347h-3.019V58.983h3.019v15.821zm1.26-18.342H26.5l-.015-.084c-.369-2.021-.75-4.108-4.595-7.163v-2.41h.504a1.26 1.26 0 0 0 1.261-1.261V26.796a7.29 7.29 0 0 0 .084-.016c2.02-.368 4.108-.749 7.163-4.595h2.41v.505c0 .696.564 1.26 1.26 1.26H53.32l.016.085c.368 2.02.749 4.108 4.594 7.163v2.41h-.505a1.26 1.26 0 0 0-1.26 1.26v18.749l-.084.015c-2.021.369-4.108.75-7.163 4.595h-2.41v-.505a1.26 1.26 0 0 0-1.26-1.26zm31.877 9.276a.97.97 0 0 1-.97.97h-1.81a3.519 3.519 0 0 0-.368-.02h-2.765c-.073 0-.146.008-.216.02h-7.8a1.26 1.26 0 1 0 0 2.521h8.643c.074 0 .146-.008.216-.02h.029c.07.012.142.02.216.02h1.873a.97.97 0 0 1 .774.95v.09a.97.97 0 0 1-.97.97H63.194a1.26 1.26 0 1 0 0 2.521h5.432c.535 0 .97.436.97.97v.09a.97.97 0 0 1-.97.97h-6.447c-2.75.06-6.661-.35-8.76-1.38a1.923 1.923 0 0 1-.092-.141 1.012 1.012 0 0 0-.861-.494 1.88 1.88 0 0 1-.328-.398 1.26 1.26 0 0 0-1.084-.619h-4.546v-12.01h3.028a1.26 1.26 0 0 0 1.005-.5c2.675-3.531 4.139-3.798 5.992-4.136 1.394-.254 2.973-.542 5.026-2.04 2.054-1.499 3.236-1.368 3.6-1.076.384.5.368.872.31 1.143-.292 1.36-2.504 2.93-3.83 3.601a1.26 1.26 0 0 0 .66 2.383.821.821 0 0 0 .071.004h11.606a.97.97 0 0 1 .97.97v.09a.97.97 0 0 1-.97.97l-.046.002c-.016 0-.031-.003-.047-.003H63.194a1.26 1.26 0 1 0 0 2.521h10.689l.047-.002.046.002h2.178a.97.97 0 0 1 .97.97v.091z"/><path d="M35.544 73.462a1.26 1.26 0 1 0 0-2.52h-.868a1.26 1.26 0 1 0 0 2.52h.868zm-5.162 0h.867a1.26 1.26 0 1 0 0-2.52h-.867a1.26 1.26 0 1 0 0 2.52zM45.144 6.95h-.868a1.26 1.26 0 1 0 0 2.52h.868a1.26 1.26 0 1 0 0-2.52zm5.555 1.26a1.26 1.26 0 0 0-1.26-1.26h-.869a1.26 1.26 0 1 0 0 2.52h.868a1.26 1.26 0 0 0 1.26-1.26z"/></g></svg>