<svg xmlns="http://www.w3.org/2000/svg" width="81" height="81"><path d="M34.07 17.407a6.55 6.55 0 0 0 2.905 3.601v.695l-5.148 2.016c-.474.172-4.503 1.78-4.503 6.902v4.483c0 .695.563 1.26 1.258 1.26h3.198a1.258 1.258 0 1 0 0-2.518h-1.94V30.62c0-3.482 2.723-4.491 2.829-4.53a1.07 1.07 0 0 0 .058-.02l4.714-1.847 2.504 2.44c.235.228.55.356.878.356h.02c.335-.005.654-.144.886-.385l2.365-2.454 4.703 1.886.068.025c.028.01 2.828.991 2.828 4.53v3.225H35.779a1.258 1.258 0 1 0 0 2.517H52.95c.695 0 1.259-.572 1.259-1.267V30.62c0-5.102-3.998-6.717-4.498-6.899l-5.014-2.01v-.703a6.55 6.55 0 0 0 2.905-3.603 3.548 3.548 0 0 0 3.26-3.531 3.54 3.54 0 0 0-1.303-2.744V8.91c0-4.653-3.785-8.439-8.438-8.439h-.598c-4.653 0-8.439 3.786-8.439 8.439v2.21a3.54 3.54 0 0 0 1.985 6.287zm13.855-4.273c.046.015.093.026.14.035a1.025 1.025 0 0 1-.14 1.533v-1.568zm-5.745 9.404l-1.386 1.439-1.302-1.268v-.853c.254.03.512.048.774.048h1.14c.263 0 .52-.018.774-.048v.682zm3.228-7.153a4.006 4.006 0 0 1-4 4.001h-1.142a4.006 4.006 0 0 1-4.002-4v-3.301c1.63-.177 4.509-.75 6.731-2.602.499.852 1.268 1.772 2.414 2.311v3.591zM34.602 8.91a5.928 5.928 0 0 1 5.922-5.922h.598a5.928 5.928 0 0 1 5.921 5.922v.794c-.021-.006-.043-.01-.065-.017l-.032-.009c-1.74-.395-2.309-2.719-2.313-2.736a1.258 1.258 0 0 0-2.247-.46c-2.264 3.13-7.313 3.165-7.376 3.165h-.004c-.044 0-.087.002-.129.007-.01 0-.022.003-.033.005a.906.906 0 0 0-.091.013l-.047.013c-.025.006-.05.01-.074.018l-.03.011V8.91zm-1.062 4.289c.071-.011.14-.028.207-.05v1.582a1.028 1.028 0 0 1-.207-1.532zm18.863-8.361c8.135 2.666 15.171 8.12 19.813 15.356a1.258 1.258 0 1 0 2.119-1.359C69.38 11.113 61.87 5.292 53.187 2.445a1.258 1.258 0 1 0-.784 2.393zM7.579 20.574a1.258 1.258 0 0 0 1.739-.38c4.694-7.32 11.822-12.803 20.07-15.44a1.258 1.258 0 1 0-.767-2.397C19.817 5.171 12.21 11.023 7.198 18.835a1.259 1.259 0 0 0 .38 1.74zm17.613 53.689A37.377 37.377 0 0 1 9.318 60.45a1.258 1.258 0 1 0-2.12 1.358 39.891 39.891 0 0 0 16.943 14.74 1.254 1.254 0 0 0 1.669-.617 1.259 1.259 0 0 0-.618-1.67zM73.955 60.07a1.259 1.259 0 0 0-1.74.38A37.399 37.399 0 0 1 56.6 74.143a1.259 1.259 0 0 0 1.069 2.28A39.912 39.912 0 0 0 74.336 61.81a1.259 1.259 0 0 0-.38-1.738zm-46.098-3.069v-4.475c0-5.102-3.997-6.717-4.498-6.9l-5.014-2.01v-.702a6.55 6.55 0 0 0 2.906-3.604 3.54 3.54 0 1 0 1.957-6.275v-2.22c0-4.653-3.786-8.439-8.438-8.439h-.599c-4.653 0-8.438 3.786-8.438 8.439v2.21a3.54 3.54 0 0 0 1.984 6.287 6.55 6.55 0 0 0 2.906 3.602v.694l-5.148 2.017c-.476.171-4.504 1.78-4.504 6.901v4.483c0 .695.564 1.26 1.259 1.26h3.197a1.258 1.258 0 1 0 0-2.517H3.488v-3.226c0-3.482 2.723-4.492 2.828-4.53l.058-.02 4.714-1.847 2.505 2.439c.235.229.55.357.877.357h.02c.335-.006.654-.144.887-.386l2.364-2.454 4.704 1.886a.818.818 0 0 0 .057.022c.116.041 2.838 1.05 2.838 4.533v3.226H9.427a1.258 1.258 0 1 0 0 2.517h17.172c.695 0 1.258-.573 1.258-1.268zM21.573 35.04c.046.014.093.025.14.034a1.024 1.024 0 0 1-.14 1.533V35.04zM7.395 36.636a1.028 1.028 0 0 1-.207-1.532c.071-.011.14-.028.207-.05v1.582zm1.262-5.084h-.004c-.043 0-.086.002-.128.007l-.033.005a1.36 1.36 0 0 0-.092.014c-.016.003-.03.008-.047.012-.024.006-.05.011-.073.019l-.03.01v-.804a5.928 5.928 0 0 1 5.921-5.922h.599a5.928 5.928 0 0 1 5.921 5.922v.795c-.021-.007-.043-.012-.065-.018l-.032-.008c-1.74-.396-2.309-2.72-2.313-2.737a1.258 1.258 0 0 0-2.247-.46c-2.264 3.13-7.314 3.165-7.377 3.165zm7.171 12.891l-1.386 1.44-1.302-1.27v-.852c.254.03.511.048.773.048h1.141c.263 0 .52-.017.774-.048v.682zm-.773-3.151h-1.141a4.006 4.006 0 0 1-4.002-4.002v-3.3c1.63-.177 4.508-.75 6.731-2.602.498.852 1.268 1.772 2.413 2.311v3.591a4.006 4.006 0 0 1-4.001 4.002zm61.121 4.334l-5.014-2.01v-.703a6.55 6.55 0 0 0 2.906-3.603 3.54 3.54 0 1 0 1.957-6.275v-2.22c0-4.653-3.786-8.439-8.439-8.439h-.598c-4.653 0-8.439 3.786-8.439 8.439v2.21a3.54 3.54 0 0 0 1.985 6.287 6.55 6.55 0 0 0 2.905 3.601v.695l-5.147 2.016c-.476.172-4.504 1.78-4.504 6.902v4.483c0 .695.563 1.26 1.259 1.26h3.197a1.258 1.258 0 1 0 0-2.518h-1.94v-3.225c0-3.483 2.723-4.492 2.829-4.53l.058-.02 4.714-1.847 2.504 2.439c.235.229.55.357.878.357h.02c.335-.006.654-.145.886-.386l2.365-2.454 4.703 1.886a.818.818 0 0 0 .058.022c.116.04 2.838 1.05 2.838 4.533v3.225H62.243a1.258 1.258 0 1 0 0 2.517h17.173c.695 0 1.258-.572 1.258-1.267v-4.475c0-5.102-3.997-6.717-4.498-6.9zM74.39 35.04c.045.014.092.025.14.034a1.024 1.024 0 0 1-.14 1.533V35.04zm-14.178 1.596a1.028 1.028 0 0 1-.207-1.532c.07-.011.14-.028.207-.05v1.582zm1.262-5.084h-.004c-.043 0-.086.002-.128.007l-.034.005c-.03.004-.061.008-.091.014-.016.003-.031.008-.047.012-.024.006-.05.011-.074.019l-.03.01v-.804a5.928 5.928 0 0 1 5.922-5.922h.598a5.928 5.928 0 0 1 5.922 5.922v.795l-.066-.018-.031-.008c-1.74-.396-2.31-2.72-2.313-2.737a1.258 1.258 0 0 0-2.247-.46c-2.264 3.13-7.314 3.165-7.377 3.165zm7.17 12.891l-1.385 1.44-1.303-1.27v-.852c.254.03.512.048.774.048h1.141c.262 0 .52-.017.774-.048v.682zm-.773-3.151h-1.14a4.006 4.006 0 0 1-4.003-4.002v-3.3c1.63-.178 4.511-.752 6.732-2.602.498.852 1.267 1.772 2.413 2.311v3.591a4.006 4.006 0 0 1-4.002 4.002zM49.712 67.535l-5.014-2.01v-.703a6.55 6.55 0 0 0 2.905-3.603 3.54 3.54 0 1 0 1.957-6.275v-2.22c0-4.654-3.785-8.44-8.438-8.44h-.598c-4.653 0-8.439 3.786-8.439 8.44v2.21a3.54 3.54 0 0 0 1.985 6.287 6.55 6.55 0 0 0 2.905 3.601v.695l-5.148 2.016c-.476.172-4.503 1.78-4.503 6.902v4.483c0 .695.563 1.26 1.258 1.26h3.197a1.258 1.258 0 1 0 0-2.518H29.84v-3.226c0-3.482 2.723-4.491 2.828-4.529l.058-.021 4.715-1.846 2.504 2.438c.235.23.55.357.878.357h.02a1.26 1.26 0 0 0 .886-.385l2.364-2.454 4.704 1.886a.818.818 0 0 0 .057.021c.116.041 2.839 1.051 2.839 4.533v3.226H35.779a1.258 1.258 0 1 0 0 2.517H52.95c.695 0 1.259-.572 1.259-1.267v-4.476c0-5.101-3.998-6.717-4.498-6.899zm-1.787-10.587c.046.014.093.025.14.035a1.024 1.024 0 0 1-.14 1.533v-1.568zm-14.178 1.597a1.029 1.029 0 0 1-.207-1.533 1.25 1.25 0 0 0 .207-.05v1.583zm1.262-5.084h-.004c-.043 0-.086.002-.128.006l-.04.006c-.028.004-.057.007-.085.013-.02.004-.038.01-.058.015l-.062.016-.03.01v-.804a5.928 5.928 0 0 1 5.921-5.921h.599a5.928 5.928 0 0 1 5.921 5.921v.795l-.062-.016-.035-.01c-1.74-.396-2.309-2.72-2.313-2.737a1.258 1.258 0 0 0-2.247-.46c-2.264 3.13-7.313 3.166-7.377 3.166zm7.171 12.89l-1.386 1.44-1.302-1.269v-.852c.254.03.512.047.774.047h1.14c.263 0 .52-.017.774-.047v.682zm-.773-3.15h-1.141a4.006 4.006 0 0 1-4.002-4.002v-3.3c1.63-.178 4.509-.75 6.731-2.603.499.853 1.268 1.773 2.414 2.312v3.59a4.006 4.006 0 0 1-4.002 4.002z" fill="#0C9"/></svg>