<svg xmlns="http://www.w3.org/2000/svg" width="129" height="46" viewBox="0 0 129 46">
    <g fill="none" fill-rule="evenodd">
        <path fill="#EB1C23" d="M1.262 14.962c.565-.133 1.163.2 1.296.765.565 2.027 1.13 4.021 1.662 5.949.897 3.29 1.928 7.179 2.659 9.605.632-2.426 1.728-6.348 2.626-9.605.531-1.928 1.097-3.922 1.662-5.95.133-.565.73-.897 1.296-.764.565.166.897.765.731 1.33L7.876 35.569c-.1.432-.498.765-.997.765s-.898-.333-1.03-.765L.53 16.292a1.078 1.078 0 0 1 .73-1.33M20.308 19.98c-.698 2.394-1.728 6.282-2.626 9.573h5.252c-.898-3.29-1.994-7.179-2.626-9.572m5.584 16.32c-.565.166-1.13-.167-1.296-.732-.1-.332-.2-.698-.3-1.097-.232-.698-.465-1.628-.764-2.792h-6.448c-.366 1.164-.531 2.094-.764 2.792-.1.4-.2.765-.3 1.097-.166.565-.697.898-1.33.732-.564-.167-.896-.732-.73-1.297l5.318-19.277c.133-.5.531-.799 1.03-.799.5 0 .897.3 1.03.799l5.319 19.277c.165.565-.133 1.13-.765 1.297M29.914 35.137V15.992c0-.631.432-1.063 1.064-1.063a1.05 1.05 0 0 1 1.063 1.063v18.081h5.584a1.05 1.05 0 0 1 1.064 1.064 1.05 1.05 0 0 1-1.064 1.064h-6.647c-.632 0-1.064-.433-1.064-1.064M48.594 31.348c.1-.897-.233-1.761-.864-2.393l-5.318-5.451a4.859 4.859 0 0 1-1.396-3.888c.1-1.463.831-2.76 1.994-3.657a4.939 4.939 0 0 1 4.056-.93c1.428.299 2.592 1.13 3.356 2.426a1.056 1.056 0 0 1-.399 1.462c-.499.3-1.163.1-1.429-.399-.432-.764-1.097-1.23-1.961-1.395-.864-.167-1.662 0-2.36.53-.698.5-1.064 1.198-1.13 2.095a2.85 2.85 0 0 0 .798 2.26l5.318 5.484a5.27 5.27 0 0 1 1.462 4.022c-.133 1.495-.864 2.859-2.06 3.756-1.197.897-2.726 1.263-4.188.964a5.268 5.268 0 0 1-3.49-2.493c-.266-.532-.1-1.163.399-1.462a1.056 1.056 0 0 1 1.462.399 2.957 2.957 0 0 0 2.06 1.462c.898.166 1.729 0 2.46-.566.765-.565 1.164-1.295 1.23-2.226M59.43 19.98c-.697 2.394-1.728 6.282-2.626 9.573h5.252c-.898-3.29-1.994-7.179-2.626-9.572m5.584 16.32c-.565.166-1.13-.167-1.296-.732-.1-.332-.2-.698-.3-1.097-.232-.698-.465-1.628-.764-2.792h-6.448c-.366 1.164-.531 2.094-.764 2.792-.1.4-.2.765-.3 1.097-.166.565-.697.898-1.33.732-.564-.167-.896-.732-.73-1.297L58.4 15.727c.133-.5.531-.799 1.03-.799.5 0 .897.3 1.03.799l5.319 19.277c.165.565-.133 1.13-.765 1.297M69.036 35.137V15.992c0-.631.433-1.063 1.064-1.063a1.05 1.05 0 0 1 1.064 1.063v18.081h5.583a1.05 1.05 0 0 1 1.064 1.064 1.05 1.05 0 0 1-1.064 1.064H70.1c-.631 0-1.064-.433-1.064-1.064"/>
        <path fill="#0C9" d="M107.757 37.337c-.423.543-1.478.377-1.759-.227-1.343-2.878-2.516-5.38-5.006-7.465-1.108-.927.486-2.504 1.584-1.584 2.21 1.85 3.45 3.965 4.631 6.395a119.22 119.22 0 0 1 20.995-20.428l-14.345 8.05c-3.206-5.826-7.583-12.931-9.313-21.509-.101-.506-.822-.506-.924 0-2.87 14.23-13.031 24.415-13.031 31.413 0 7.46 6.04 13.5 13.493 13.5s13.494-6.04 13.494-13.5c0-1.406-.42-2.947-1.101-4.62a118.098 118.098 0 0 0-8.718 9.975"/>
    </g>
</svg>
