<svg xmlns="http://www.w3.org/2000/svg" width="169" height="61"><path d="M1.023 20.36c.747-.177 1.539.263 1.714 1.01.748 2.681 1.496 5.319 2.198 7.868 1.187 4.351 2.55 9.493 3.516 12.702.836-3.209 2.286-8.395 3.473-12.702.703-2.55 1.45-5.187 2.198-7.867.175-.748.966-1.188 1.713-1.011a1.425 1.425 0 0 1 .968 1.758L9.769 47.61c-.13.571-.658 1.01-1.318 1.01s-1.187-.439-1.363-1.01L.057 22.118c-.22-.747.22-1.54.966-1.758m25.187 6.636c-.923 3.165-2.285 8.307-3.472 12.658h6.945c-1.188-4.351-2.637-9.493-3.473-12.658m7.384 21.581c-.747.22-1.494-.22-1.714-.967-.131-.44-.263-.923-.395-1.45-.309-.923-.616-2.154-1.011-3.693h-8.527c-.484 1.54-.703 2.77-1.011 3.692a32.388 32.388 0 0 1-.396 1.45c-.22.748-.923 1.188-1.758.968-.747-.22-1.186-.967-.968-1.714l7.034-25.493c.176-.66.702-1.055 1.362-1.055.66 0 1.186.396 1.363 1.055l7.032 25.493c.22.747-.176 1.494-1.01 1.714m5.317-1.538V21.72c0-.834.572-1.406 1.407-1.406.747 0 1.406.572 1.406 1.406v23.911h7.384c.747 0 1.407.571 1.407 1.407 0 .834-.66 1.406-1.407 1.406h-8.79c-.835 0-1.407-.572-1.407-1.406m24.703-5.01c.132-1.186-.308-2.33-1.143-3.165l-7.032-7.208a6.425 6.425 0 0 1-1.846-5.142c.132-1.934 1.099-3.648 2.637-4.835a6.531 6.531 0 0 1 5.363-1.23c1.889.395 3.428 1.494 4.439 3.208.395.66.175 1.538-.528 1.933-.66.397-1.538.133-1.89-.527-.57-1.011-1.45-1.626-2.594-1.846-1.142-.22-2.197 0-3.12.703-.923.66-1.407 1.583-1.494 2.77-.089 1.142.263 2.153 1.054 2.988l7.033 7.252a6.969 6.969 0 0 1 1.934 5.319c-.176 1.977-1.143 3.78-2.726 4.966-1.581 1.187-3.603 1.67-5.537 1.275a6.967 6.967 0 0 1-4.615-3.297c-.352-.703-.132-1.538.528-1.933a1.396 1.396 0 0 1 1.933.527 3.91 3.91 0 0 0 2.725 1.934c1.187.22 2.285 0 3.253-.748 1.01-.747 1.538-1.713 1.626-2.944m14.33-15.032c-.923 3.165-2.285 8.307-3.473 12.658h6.945c-1.187-4.351-2.637-9.493-3.472-12.658m7.384 21.581c-.748.22-1.495-.22-1.715-.967-.131-.44-.263-.923-.395-1.45-.308-.923-.616-2.154-1.01-3.693H73.68c-.484 1.54-.702 2.77-1.01 3.692a32.388 32.388 0 0 1-.397 1.45c-.22.748-.922 1.188-1.758.968-.747-.22-1.186-.967-.967-1.714l7.033-25.493c.176-.66.703-1.055 1.363-1.055s1.186.396 1.362 1.055l7.033 25.493c.219.747-.176 1.494-1.011 1.714m5.32-1.538V21.72c0-.834.571-1.406 1.407-1.406.747 0 1.406.572 1.406 1.406v23.911h7.383c.748 0 1.407.571 1.407 1.407 0 .834-.66 1.406-1.407 1.406h-8.79c-.835 0-1.406-.572-1.406-1.406m51.203 2.909c-.559.719-1.954.5-2.326-.3-1.776-3.806-3.326-7.114-6.62-9.87-1.465-1.227.643-3.313 2.095-2.096 2.922 2.446 4.562 5.244 6.124 8.457a157.655 157.655 0 0 1 27.763-27.013l-18.969 10.644c-4.24-7.704-10.028-17.1-12.315-28.443-.135-.669-1.087-.669-1.222 0-3.795 18.819-17.233 32.286-17.233 41.54 0 9.864 7.987 17.854 17.844 17.854 9.855 0 17.844-7.99 17.844-17.853 0-1.86-.555-3.898-1.457-6.11a156.171 156.171 0 0 0-11.528 13.19" fill="#F5F5FA" fill-rule="evenodd"/></svg>