<svg xmlns="http://www.w3.org/2000/svg" width="20" height="20"><path fill="#F5F5F5" fill-rule="evenodd" d="M.154 0c10.887 0 19.82 8.944 19.82 19.768 0 .077-.004.154-.005.232h-3.716c0-.078.006-.155.006-.232 0-8.788-7.267-16.073-16.105-16.073-.05 0-.103.004-.154.004V.004C.05.004.103 0 .154 0zm9.232 19.75c0-5.094-4.109-9.198-9.232-9.198-.051 0-.103.007-.154.007V6.864c.05 0 .103-.009.154-.009 7.172 0 12.95 5.763 12.95 12.895 0 .079-.012.153-.014.232H9.375c.002-.079.011-.153.011-.232zm-6.56.152A2.817 2.817 0 0 1 0 17.092a2.819 2.819 0 0 1 2.826-2.81 2.818 2.818 0 0 1 2.826 2.81 2.816 2.816 0 0 1-2.826 2.81z"/></svg>