<svg xmlns="http://www.w3.org/2000/svg" width="24" height="24" viewBox="0 0 24 24">
    <path fill="#FFF" fill-rule="evenodd" d="M16.479 15.496c1.516-1.59 2.461-3.719 2.461-6.063 0-4.918-4.13-8.932-9.218-8.932C4.633.5.504 4.515.504 9.433s4.13 8.932 9.218 8.932c2.072 0 3.976-.66 5.52-1.778l6.854 6.642a.837.837 0 0 0 .584.243c.209 0 .431-.081.584-.243a.803.803 0 0 0 0-1.145l-6.785-6.588zM2.172 9.433c0-4.028 3.379-7.316 7.55-7.316 4.157 0 7.55 3.274 7.55 7.316s-3.379 7.316-7.55 7.316c-4.171 0-7.55-3.288-7.55-7.316z"/>
</svg>
