<svg xmlns="http://www.w3.org/2000/svg" width="22" height="19"><path fill="#F5F5F5" fill-rule="evenodd" d="M18.525 1.46A4.452 4.452 0 0 0 15.23 0c-2.49 0-4.512 2.072-4.512 4.628 0 .363.039.715.116 1.054C7.085 5.489 3.76 3.648 1.531.845a4.712 4.712 0 0 0-.61 2.33c0 1.604.796 3.02 2.008 3.85A4.431 4.431 0 0 1 .883 6.45v.056c0 2.244 1.556 4.115 3.622 4.539a4.398 4.398 0 0 1-2.039.081c.575 1.838 2.24 3.176 4.216 3.212A8.913 8.913 0 0 1 0 16.256a12.564 12.564 0 0 0 6.919 2.077c8.303 0 12.842-7.05 12.842-13.167 0-.202-.004-.403-.011-.6A9.26 9.26 0 0 0 22 2.17a8.84 8.84 0 0 1-2.592.729 4.62 4.62 0 0 0 1.985-2.56 8.874 8.874 0 0 1-2.868 1.121z"/></svg>